<svg width="15" height="15" viewBox="0 0 15 15" fill="none" xmlns="http://www.w3.org/2000/svg">
<path d="M12.5 1.25H2.5V2.5L6.13125 5.225C5.02921 5.58839 4.11655 6.37448 3.59385 7.4105C3.07116 8.44652 2.9812 9.64768 3.34375 10.75C3.52312 11.2961 3.80839 11.8014 4.18324 12.2371C4.55809 12.6728 5.01516 13.0303 5.52832 13.2892C6.04147 13.5481 6.60063 13.7033 7.17382 13.7459C7.747 13.7885 8.32296 13.7177 8.86875 13.5375C9.74405 13.2498 10.5062 12.6931 11.0465 11.9468C11.5868 11.2005 11.8777 10.3026 11.8777 9.38125C11.8777 8.45988 11.5868 7.56203 11.0465 6.81571C10.5062 6.06939 9.74405 5.5127 8.86875 5.225L12.5 2.5V1.25ZM9.3375 12.1875L7.5 11.1125L5.6625 12.1875L6.15 10.1063L4.53125 8.70625L6.6625 8.525L7.5 6.5625L8.3375 8.525L10.4688 8.70625L8.85 10.1063L9.3375 12.1875Z" fill="#F9F9F9"/>
</svg>
