<svg width="30" height="30" viewBox="0 0 30 30" fill="none" xmlns="http://www.w3.org/2000/svg">
<path d="M17.5 12.375V10.25C18.1875 9.95834 18.8908 9.73959 19.61 9.59375C20.3292 9.44792 21.0842 9.375 21.875 9.375C22.4167 9.375 22.9479 9.41667 23.4688 9.5C23.9896 9.58334 24.5 9.6875 25 9.8125V11.8125C24.5 11.625 23.9946 11.4846 23.4838 11.3913C22.9729 11.2979 22.4367 11.2508 21.875 11.25C21.0833 11.25 20.3229 11.3492 19.5938 11.5475C18.8646 11.7458 18.1667 12.0217 17.5 12.375ZM17.5 19.25V17.125C18.1875 16.8333 18.8908 16.6146 19.61 16.4688C20.3292 16.3229 21.0842 16.25 21.875 16.25C22.4167 16.25 22.9479 16.2917 23.4688 16.375C23.9896 16.4583 24.5 16.5625 25 16.6875V18.6875C24.5 18.5 23.9946 18.3592 23.4838 18.265C22.9729 18.1708 22.4367 18.1242 21.875 18.125C21.0833 18.125 20.3229 18.2188 19.5938 18.4063C18.8646 18.5938 18.1667 18.875 17.5 19.25ZM17.5 15.8125V13.6875C18.1875 13.3958 18.8908 13.1771 19.61 13.0313C20.3292 12.8854 21.0842 12.8125 21.875 12.8125C22.4167 12.8125 22.9479 12.8542 23.4688 12.9375C23.9896 13.0208 24.5 13.125 25 13.25V15.25C24.5 15.0625 23.9946 14.9217 23.4838 14.8275C22.9729 14.7333 22.4367 14.6867 21.875 14.6875C21.0833 14.6875 20.3229 14.7867 19.5938 14.985C18.8646 15.1833 18.1667 15.4592 17.5 15.8125ZM16.25 21.3125C17.1667 20.875 18.0888 20.5467 19.0163 20.3275C19.9438 20.1083 20.8967 19.9992 21.875 20C22.625 20 23.3596 20.0625 24.0788 20.1875C24.7979 20.3125 25.5217 20.5 26.25 20.75V8.375C25.5625 8.08334 24.8488 7.86459 24.1088 7.71875C23.3688 7.57292 22.6242 7.5 21.875 7.5C20.8958 7.5 19.9271 7.625 18.9688 7.875C18.0104 8.125 17.1042 8.5 16.25 9V21.3125ZM15 25C14 24.2083 12.9167 23.5938 11.75 23.1563C10.5833 22.7188 9.375 22.5 8.125 22.5C7.25 22.5 6.39083 22.6146 5.5475 22.8438C4.70417 23.0729 3.89667 23.3958 3.125 23.8125C2.6875 24.0417 2.26583 24.0313 1.86 23.7813C1.45417 23.5313 1.25083 23.1667 1.25 22.6875V7.625C1.25 7.39584 1.3075 7.17709 1.4225 6.96875C1.5375 6.76042 1.70917 6.60417 1.9375 6.5C2.91667 6.02084 3.92208 5.65084 4.95375 5.39C5.98542 5.12917 7.0425 4.99917 8.125 5C9.33333 5 10.5158 5.15625 11.6725 5.46875C12.8292 5.78125 13.9383 6.25 15 6.875C16.0625 6.25 17.1721 5.78125 18.3288 5.46875C19.4854 5.15625 20.6675 5 21.875 5C22.9583 5 24.0158 5.13042 25.0475 5.39125C26.0792 5.65209 27.0842 6.02167 28.0625 6.5C28.2917 6.60417 28.4638 6.76042 28.5788 6.96875C28.6938 7.17709 28.7508 7.39584 28.75 7.625V22.6875C28.75 23.1667 28.5471 23.5313 28.1413 23.7813C27.7354 24.0313 27.3133 24.0417 26.875 23.8125C26.1042 23.3958 25.2971 23.0729 24.4538 22.8438C23.6104 22.6146 22.7508 22.5 21.875 22.5C20.625 22.5 19.4167 22.7188 18.25 23.1563C17.0833 23.5938 16 24.2083 15 25Z" fill="#6B7A8F"/>
</svg>
