<svg width="15" height="15" viewBox="0 0 15 15" fill="none" xmlns="http://www.w3.org/2000/svg">
<path d="M2.81248 12.1875H12.1875V14.0625H2.81248V12.1875ZM10.5469 6.09375C10.1328 6.09369 9.72485 6.19354 9.35762 6.38482C8.9904 6.5761 8.67476 6.85317 8.43748 7.1925V4.6875H10.3125V2.8125H8.43748V0.9375H6.56248V2.8125H4.68748V4.6875H6.56248V7.1925C6.31407 6.8379 5.98033 6.55159 5.59206 6.36001C5.20379 6.16844 4.77351 6.07776 4.34095 6.09637C3.9084 6.11497 3.48749 6.24226 3.11711 6.46646C2.74673 6.69067 2.43879 7.00457 2.22175 7.3792C2.0047 7.75382 1.88553 8.17709 1.87524 8.60993C1.86495 9.04277 1.96387 9.47122 2.16288 9.85574C2.36188 10.2402 2.65454 10.5684 3.01386 10.81C3.37317 11.0515 3.78755 11.1987 4.21873 11.2378V11.25H10.7812V11.2383C11.4416 11.1777 12.0532 10.8649 12.4889 10.365C12.9246 9.86513 13.1509 9.21654 13.1207 8.55409C13.0905 7.89165 12.8062 7.26632 12.3269 6.8081C11.8475 6.34989 11.21 6.09404 10.5469 6.09375Z" fill="#F9F9F9"/>
</svg>
