<svg width="15" height="15" viewBox="0 0 15 15" fill="none" xmlns="http://www.w3.org/2000/svg">
<path d="M7.5 13.75C6.67924 13.75 5.86651 13.5883 5.10823 13.2742C4.34994 12.9602 3.66095 12.4998 3.08058 11.9194C1.90848 10.7473 1.25 9.1576 1.25 7.5C1.25 5.8424 1.90848 4.25269 3.08058 3.08058C4.25269 1.90848 5.8424 1.25 7.5 1.25C10.9375 1.25 13.75 3.75 13.75 6.875C13.75 7.86956 13.3549 8.82339 12.6517 9.52665C11.9484 10.2299 10.9946 10.625 10 10.625H8.875C8.6875 10.625 8.5625 10.75 8.5625 10.9375C8.5625 11 8.625 11.0625 8.625 11.125C8.875 11.4375 9 11.8125 9 12.1875C9.0625 13.0625 8.375 13.75 7.5 13.75ZM7.5 2.5C6.17392 2.5 4.90215 3.02678 3.96447 3.96447C3.02678 4.90215 2.5 6.17392 2.5 7.5C2.5 8.82608 3.02678 10.0979 3.96447 11.0355C4.90215 11.9732 6.17392 12.5 7.5 12.5C7.6875 12.5 7.8125 12.375 7.8125 12.1875C7.8125 12.0625 7.75 12 7.75 11.9375C7.5 11.625 7.375 11.3125 7.375 10.9375C7.375 10.0625 8.0625 9.375 8.9375 9.375H10C10.663 9.375 11.2989 9.11161 11.7678 8.64277C12.2366 8.17393 12.5 7.53804 12.5 6.875C12.5 4.4375 10.25 2.5 7.5 2.5ZM4.0625 6.25C4.5625 6.25 5 6.6875 5 7.1875C5 7.6875 4.5625 8.125 4.0625 8.125C3.5625 8.125 3.125 7.6875 3.125 7.1875C3.125 6.6875 3.5625 6.25 4.0625 6.25ZM5.9375 3.75C6.4375 3.75 6.875 4.1875 6.875 4.6875C6.875 5.1875 6.4375 5.625 5.9375 5.625C5.4375 5.625 5 5.1875 5 4.6875C5 4.1875 5.4375 3.75 5.9375 3.75ZM9.0625 3.75C9.5625 3.75 10 4.1875 10 4.6875C10 5.1875 9.5625 5.625 9.0625 5.625C8.5625 5.625 8.125 5.1875 8.125 4.6875C8.125 4.1875 8.5625 3.75 9.0625 3.75ZM10.9375 6.25C11.4375 6.25 11.875 6.6875 11.875 7.1875C11.875 7.6875 11.4375 8.125 10.9375 8.125C10.4375 8.125 10 7.6875 10 7.1875C10 6.6875 10.4375 6.25 10.9375 6.25Z" fill="#5C5957"/>
</svg>
